<svg width="109" height="101" viewBox="0 0 109 101" fill="none" xmlns="http://www.w3.org/2000/svg">
<path d="M4.62571 66V1.27273H48.2408V12.5558H18.3107V27.979H45.9968V39.2621H18.3107V54.717H48.3672V66H4.62571ZM94.2341 19.8881C93.9813 17.3387 92.8962 15.3581 90.9788 13.9464C89.0614 12.5347 86.4593 11.8288 83.1723 11.8288C80.9389 11.8288 79.0531 12.1449 77.515 12.777C75.9769 13.388 74.797 14.2414 73.9752 15.337C73.1746 16.4326 72.7742 17.6758 72.7742 19.0664C72.7321 20.2253 72.9744 21.2366 73.5012 22.1005C74.049 22.9644 74.797 23.7124 75.7451 24.3445C76.6933 24.9555 77.7889 25.4928 79.032 25.9563C80.2752 26.3988 81.6026 26.7781 83.0143 27.0941L88.8296 28.4847C91.653 29.1168 94.2446 29.9596 96.6045 31.0131C98.9643 32.0666 101.008 33.3625 102.736 34.9006C104.464 36.4387 105.802 38.2507 106.75 40.3366C107.719 42.4226 108.214 44.814 108.235 47.511C108.214 51.4722 107.203 54.9066 105.201 57.8143C103.22 60.7009 100.355 62.9448 96.6045 64.5462C92.8751 66.1264 88.3766 66.9165 83.1091 66.9165C77.8837 66.9165 73.3326 66.1159 69.4557 64.5146C65.5999 62.9132 62.5869 60.5429 60.4166 57.4034C58.2675 54.2429 57.1402 50.3344 57.0349 45.6779H70.2774C70.4249 47.8481 71.0465 49.6602 72.1421 51.114C73.2588 52.5468 74.7443 53.6319 76.5985 54.3693C78.4737 55.0857 80.5912 55.4439 82.9511 55.4439C85.2688 55.4439 87.281 55.1068 88.9877 54.4325C90.7154 53.7583 92.0534 52.8207 93.0015 51.6197C93.9497 50.4187 94.4237 49.0386 94.4237 47.4794C94.4237 46.0256 93.9918 44.8035 93.1279 43.8132C92.2851 42.8229 91.042 41.9801 89.3985 41.2848C87.7761 40.5895 85.785 39.9574 83.4252 39.3885L76.3772 37.6186C70.9201 36.2912 66.6112 34.2158 63.4507 31.3924C60.2902 28.569 58.7205 24.7659 58.7416 19.983C58.7205 16.0639 59.7635 12.64 61.8705 9.71129C63.9986 6.78255 66.9168 4.49645 70.6251 2.85298C74.3334 1.20951 78.5474 0.387782 83.2671 0.387782C88.0711 0.387782 92.2641 1.20951 95.846 2.85298C99.449 4.49645 102.251 6.78255 104.253 9.71129C106.255 12.64 107.287 16.0323 107.35 19.8881H94.2341ZM0.517045 77.5455H5.06818L9.875 89.2727H10.0795L14.8864 77.5455H19.4375V95H15.858V83.6392H15.7131L11.196 94.9148H8.75852L4.24148 83.5966H4.09659V95H0.517045V77.5455ZM26.1428 95.2472C25.3075 95.2472 24.5632 95.1023 23.9098 94.8125C23.2564 94.517 22.7393 94.0824 22.3587 93.5085C21.9837 92.929 21.7962 92.2074 21.7962 91.3438C21.7962 90.6165 21.9297 90.0057 22.1967 89.5114C22.4638 89.017 22.8274 88.6193 23.2876 88.3182C23.7479 88.017 24.2706 87.7898 24.8558 87.6364C25.4467 87.483 26.0661 87.375 26.7138 87.3125C27.4751 87.233 28.0888 87.1591 28.5547 87.0909C29.0206 87.017 29.3587 86.9091 29.5689 86.767C29.7791 86.625 29.8842 86.4148 29.8842 86.1364V86.0852C29.8842 85.5455 29.7138 85.1278 29.3729 84.8324C29.0376 84.5369 28.5604 84.3892 27.9411 84.3892C27.2876 84.3892 26.7678 84.5341 26.3814 84.8239C25.995 85.108 25.7393 85.4659 25.6143 85.8977L22.2564 85.625C22.4268 84.8295 22.7621 84.142 23.2621 83.5625C23.7621 82.9773 24.407 82.5284 25.1967 82.2159C25.9922 81.8977 26.9126 81.7386 27.9581 81.7386C28.6854 81.7386 29.3814 81.8239 30.0462 81.9943C30.7166 82.1648 31.3104 82.429 31.8274 82.7869C32.3501 83.1449 32.7621 83.6051 33.0632 84.1676C33.3643 84.7244 33.5149 85.392 33.5149 86.1705V95H30.0717V93.1847H29.9695C29.7592 93.5938 29.478 93.9545 29.1257 94.267C28.7734 94.5739 28.3501 94.8153 27.8558 94.9915C27.3615 95.1619 26.7905 95.2472 26.1428 95.2472ZM27.1825 92.7415C27.7166 92.7415 28.1882 92.6364 28.5973 92.4261C29.0064 92.2102 29.3274 91.9205 29.5604 91.5568C29.7933 91.1932 29.9098 90.7812 29.9098 90.321V88.9318C29.7962 89.0057 29.6399 89.0739 29.4411 89.1364C29.2479 89.1932 29.0291 89.2472 28.7848 89.2983C28.5405 89.3437 28.2962 89.3864 28.0518 89.4261C27.8075 89.4602 27.5859 89.4915 27.3871 89.5199C26.9609 89.5824 26.5888 89.6818 26.2706 89.8182C25.9524 89.9545 25.7053 90.1392 25.5291 90.3722C25.353 90.5994 25.2649 90.8835 25.2649 91.2244C25.2649 91.7188 25.4439 92.0966 25.8018 92.358C26.1655 92.6136 26.6257 92.7415 27.1825 92.7415ZM39.9624 87.4318V95H36.3317V81.9091H39.7919V84.2188H39.9453C40.2351 83.4574 40.7209 82.8551 41.4027 82.4119C42.0845 81.9631 42.9112 81.7386 43.8828 81.7386C44.7919 81.7386 45.5845 81.9375 46.2607 82.3352C46.9368 82.733 47.4624 83.3011 47.8374 84.0398C48.2124 84.7727 48.3999 85.6477 48.3999 86.6648V95H44.7692V87.3125C44.7749 86.5114 44.5703 85.8864 44.1555 85.4375C43.7408 84.983 43.1697 84.7557 42.4425 84.7557C41.9538 84.7557 41.522 84.8608 41.147 85.071C40.7777 85.2812 40.4879 85.5881 40.2777 85.9915C40.0732 86.3892 39.968 86.8693 39.9624 87.4318ZM54.9943 95.2472C54.1591 95.2472 53.4148 95.1023 52.7614 94.8125C52.108 94.517 51.5909 94.0824 51.2102 93.5085C50.8352 92.929 50.6477 92.2074 50.6477 91.3438C50.6477 90.6165 50.7813 90.0057 51.0483 89.5114C51.3153 89.017 51.679 88.6193 52.1392 88.3182C52.5994 88.017 53.1222 87.7898 53.7074 87.6364C54.2983 87.483 54.9176 87.375 55.5653 87.3125C56.3267 87.233 56.9403 87.1591 57.4062 87.0909C57.8722 87.017 58.2102 86.9091 58.4205 86.767C58.6307 86.625 58.7358 86.4148 58.7358 86.1364V86.0852C58.7358 85.5455 58.5653 85.1278 58.2244 84.8324C57.8892 84.5369 57.4119 84.3892 56.7926 84.3892C56.1392 84.3892 55.6193 84.5341 55.233 84.8239C54.8466 85.108 54.5909 85.4659 54.4659 85.8977L51.108 85.625C51.2784 84.8295 51.6136 84.142 52.1136 83.5625C52.6136 82.9773 53.2585 82.5284 54.0483 82.2159C54.8438 81.8977 55.7642 81.7386 56.8097 81.7386C57.5369 81.7386 58.233 81.8239 58.8977 81.9943C59.5682 82.1648 60.1619 82.429 60.679 82.7869C61.2017 83.1449 61.6136 83.6051 61.9148 84.1676C62.2159 84.7244 62.3665 85.392 62.3665 86.1705V95H58.9233V93.1847H58.821C58.6108 93.5938 58.3295 93.9545 57.9773 94.267C57.625 94.5739 57.2017 94.8153 56.7074 94.9915C56.2131 95.1619 55.642 95.2472 54.9943 95.2472ZM56.0341 92.7415C56.5682 92.7415 57.0398 92.6364 57.4489 92.4261C57.858 92.2102 58.179 91.9205 58.4119 91.5568C58.6449 91.1932 58.7614 90.7812 58.7614 90.321V88.9318C58.6477 89.0057 58.4915 89.0739 58.2926 89.1364C58.0994 89.1932 57.8807 89.2472 57.6364 89.2983C57.392 89.3437 57.1477 89.3864 56.9034 89.4261C56.6591 89.4602 56.4375 89.4915 56.2386 89.5199C55.8125 89.5824 55.4403 89.6818 55.1222 89.8182C54.804 89.9545 54.5568 90.1392 54.3807 90.3722C54.2045 90.5994 54.1165 90.8835 54.1165 91.2244C54.1165 91.7188 54.2955 92.0966 54.6534 92.358C55.017 92.6136 55.4773 92.7415 56.0341 92.7415ZM71.081 100.182C69.9048 100.182 68.8963 100.02 68.0554 99.696C67.2202 99.3778 66.5554 98.9432 66.0611 98.392C65.5668 97.8409 65.2457 97.2216 65.098 96.5341L68.456 96.0824C68.5582 96.3438 68.7202 96.5881 68.9418 96.8153C69.1634 97.0426 69.456 97.2244 69.8196 97.3608C70.1889 97.5028 70.6378 97.5739 71.1662 97.5739C71.956 97.5739 72.6065 97.3807 73.1179 96.9943C73.6349 96.6136 73.8935 95.9744 73.8935 95.0767V92.6818H73.7401C73.581 93.0455 73.3423 93.3892 73.0241 93.7131C72.706 94.0369 72.2969 94.3011 71.7969 94.5057C71.2969 94.7102 70.7003 94.8125 70.0071 94.8125C69.0241 94.8125 68.1293 94.5852 67.3224 94.1307C66.5213 93.6705 65.8821 92.9687 65.4048 92.0256C64.9332 91.0767 64.6974 89.8778 64.6974 88.429C64.6974 86.946 64.9389 85.7074 65.4219 84.7131C65.9048 83.7187 66.5469 82.9744 67.348 82.4801C68.1548 81.9858 69.0384 81.7386 69.9986 81.7386C70.7315 81.7386 71.3452 81.8636 71.8395 82.1136C72.3338 82.358 72.7315 82.6648 73.0327 83.0341C73.3395 83.3977 73.5753 83.7557 73.7401 84.108H73.8764V81.9091H77.4815V95.1278C77.4815 96.2415 77.2088 97.1733 76.6634 97.9233C76.1179 98.6733 75.3622 99.2358 74.3963 99.6108C73.4361 99.9915 72.331 100.182 71.081 100.182ZM71.1577 92.0852C71.7429 92.0852 72.2372 91.9403 72.6406 91.6506C73.0497 91.3551 73.3622 90.9347 73.5781 90.3892C73.7997 89.8381 73.9105 89.179 73.9105 88.4119C73.9105 87.6449 73.8026 86.9801 73.5866 86.4176C73.3707 85.8494 73.0582 85.4091 72.6491 85.0966C72.2401 84.7841 71.7429 84.6278 71.1577 84.6278C70.5611 84.6278 70.0582 84.7898 69.6491 85.1136C69.2401 85.4318 68.9304 85.875 68.7202 86.4432C68.5099 87.0114 68.4048 87.6676 68.4048 88.4119C68.4048 89.1676 68.5099 89.821 68.7202 90.3722C68.9361 90.9176 69.2457 91.3409 69.6491 91.642C70.0582 91.9375 70.5611 92.0852 71.1577 92.0852ZM86.3366 95.2557C84.9901 95.2557 83.831 94.983 82.8594 94.4375C81.8935 93.8864 81.1491 93.108 80.6264 92.1023C80.1037 91.0909 79.8423 89.8949 79.8423 88.5142C79.8423 87.1676 80.1037 85.9858 80.6264 84.9688C81.1491 83.9517 81.8849 83.1591 82.8338 82.5909C83.7884 82.0227 84.9077 81.7386 86.1918 81.7386C87.0554 81.7386 87.8594 81.8778 88.6037 82.1562C89.3537 82.429 90.0071 82.8409 90.5639 83.392C91.1264 83.9432 91.5639 84.6364 91.8764 85.4716C92.1889 86.3011 92.3452 87.2727 92.3452 88.3864V89.3835H81.2912V87.1335H88.9276C88.9276 86.6108 88.8139 86.1477 88.5866 85.7443C88.3594 85.3409 88.044 85.0256 87.6406 84.7983C87.2429 84.5653 86.7798 84.4489 86.2514 84.4489C85.7003 84.4489 85.2116 84.5767 84.7855 84.8324C84.3651 85.0824 84.0355 85.4205 83.7969 85.8466C83.5582 86.267 83.4361 86.7358 83.4304 87.2528V89.392C83.4304 90.0398 83.5497 90.5994 83.7884 91.071C84.0327 91.5426 84.3764 91.9062 84.8196 92.1619C85.2628 92.4176 85.7884 92.5455 86.3963 92.5455C86.7997 92.5455 87.169 92.4886 87.5043 92.375C87.8395 92.2614 88.1264 92.0909 88.3651 91.8636C88.6037 91.6364 88.7855 91.358 88.9105 91.0284L92.2685 91.25C92.098 92.0568 91.7486 92.7614 91.2202 93.3636C90.6974 93.9602 90.0213 94.4261 89.1918 94.7614C88.3679 95.0909 87.4162 95.2557 86.3366 95.2557ZM94.7145 95V81.9091H98.2344V84.1932H98.3707C98.6094 83.3807 99.0099 82.767 99.5724 82.3523C100.135 81.9318 100.783 81.7216 101.516 81.7216C101.697 81.7216 101.893 81.733 102.104 81.7557C102.314 81.7784 102.499 81.8097 102.658 81.8494V85.071C102.487 85.0199 102.251 84.9744 101.95 84.9347C101.649 84.8949 101.374 84.875 101.124 84.875C100.589 84.875 100.112 84.9915 99.6918 85.2244C99.277 85.4517 98.9474 85.7699 98.7031 86.179C98.4645 86.5881 98.3452 87.0597 98.3452 87.5938V95H94.7145Z" fill="#0C9291"/>
</svg>
