<svg width="48" height="48" viewBox="0 0 48 48" fill="none" xmlns="http://www.w3.org/2000/svg">
<rect width="48" height="48" rx="24" fill="#B3E4E4"/>
<mask id="mask0_560_36270" style="mask-type:alpha" maskUnits="userSpaceOnUse" x="12" y="12" width="24" height="24">
<rect x="12" y="12" width="24" height="24" fill="#D9D9D9"/>
</mask>
<g mask="url(#mask0_560_36270)">
<path d="M21.2 21.2L23.425 17.525L21.95 15.075C21.75 14.7417 21.4625 14.575 21.0875 14.575C20.7125 14.575 20.425 14.7417 20.225 15.075L17.775 19.15L21.2 21.2ZM30.875 28L28.65 24.3L32.125 22.3L33.725 24.975C33.9083 25.2583 34.0083 25.575 34.025 25.925C34.0417 26.275 33.9667 26.6 33.8 26.9C33.6333 27.2333 33.3875 27.5 33.0625 27.7C32.7375 27.9 32.3833 28 32 28H30.875ZM28 35L24 31L28 27V29H32.75L31.3 31.9C31.1167 32.2333 30.8667 32.5 30.55 32.7C30.2333 32.9 29.8833 33 29.5 33H28V35ZM18.325 33C17.9917 33 17.6875 32.9125 17.4125 32.7375C17.1375 32.5625 16.9333 32.3333 16.8 32.05C16.6667 31.7833 16.6042 31.5042 16.6125 31.2125C16.6208 30.9208 16.7 30.65 16.85 30.4L17.7 29H22V33H18.325ZM15.85 30.15L14.225 26.9C14.075 26.6 14.0042 26.2792 14.0125 25.9375C14.0208 25.5958 14.1167 25.275 14.3 24.975L14.7 24.3L13 23.275L18.475 21.9L19.85 27.4L18.125 26.35L15.85 30.15ZM29.35 21.6L23.875 20.225L25.6 19.2L22.475 14H26C26.35 14 26.6792 14.0875 26.9875 14.2625C27.2958 14.4375 27.5417 14.675 27.725 14.975L29.025 17.15L30.725 16.1L29.35 21.6Z" fill="#0C9291"/>
</g>
</svg>
