<svg width="32" height="32" viewBox="0 0 32 32" fill="none" xmlns="http://www.w3.org/2000/svg">
<g id="Featured icon">
<rect width="32" height="32" rx="16" fill="#B5EAE9"/>
<g id="person_add">
<mask id="mask0_560_31517" style="mask-type:alpha" maskUnits="userSpaceOnUse" x="8" y="8" width="16" height="16">
<rect id="Bounding box" x="8" y="8" width="16" height="16" fill="#D9D9D9"/>
</mask>
<g mask="url(#mask0_560_31517)">
<path id="person_add_2" d="M20 17.3334V15.3334H18V14H20V12H21.3333V14H23.3333V15.3334H21.3333V17.3334H20ZM14 16C13.2666 16 12.6388 15.7389 12.1166 15.2167C11.5944 14.6945 11.3333 14.0667 11.3333 13.3334C11.3333 12.6 11.5944 11.9722 12.1166 11.45C12.6388 10.9278 13.2666 10.6667 14 10.6667C14.7333 10.6667 15.3611 10.9278 15.8833 11.45C16.4055 11.9722 16.6666 12.6 16.6666 13.3334C16.6666 14.0667 16.4055 14.6945 15.8833 15.2167C15.3611 15.7389 14.7333 16 14 16ZM8.66663 21.3334V19.4667C8.66663 19.0889 8.76385 18.7417 8.95829 18.425C9.15274 18.1084 9.41107 17.8667 9.73329 17.7C10.4222 17.3556 11.1222 17.0972 11.8333 16.925C12.5444 16.7528 13.2666 16.6667 14 16.6667C14.7333 16.6667 15.4555 16.7528 16.1666 16.925C16.8777 17.0972 17.5777 17.3556 18.2666 17.7C18.5888 17.8667 18.8472 18.1084 19.0416 18.425C19.2361 18.7417 19.3333 19.0889 19.3333 19.4667V21.3334H8.66663ZM9.99996 20H18V19.4667C18 19.3445 17.9694 19.2334 17.9083 19.1334C17.8472 19.0334 17.7666 18.9556 17.6666 18.9C17.0666 18.6 16.4611 18.375 15.85 18.225C15.2388 18.075 14.6222 18 14 18C13.3777 18 12.7611 18.075 12.15 18.225C11.5388 18.375 10.9333 18.6 10.3333 18.9C10.2333 18.9556 10.1527 19.0334 10.0916 19.1334C10.0305 19.2334 9.99996 19.3445 9.99996 19.4667V20ZM14 14.6667C14.3666 14.6667 14.6805 14.5361 14.9416 14.275C15.2027 14.0139 15.3333 13.7 15.3333 13.3334C15.3333 12.9667 15.2027 12.6528 14.9416 12.3917C14.6805 12.1306 14.3666 12 14 12C13.6333 12 13.3194 12.1306 13.0583 12.3917C12.7972 12.6528 12.6666 12.9667 12.6666 13.3334C12.6666 13.7 12.7972 14.0139 13.0583 14.275C13.3194 14.5361 13.6333 14.6667 14 14.6667Z" fill="#0C9291"/>
</g>
</g>
</g>
</svg>
